# xmcd CD database file
#
# Track frame offsets:
#	187
#	34592
#	58630
#	85652
#	123302
#
# Disc length: 2227 seconds
#
# Revision: 0
# Processed by: cddbd v1.5.1PL0 Copyright (c) Steve Scherf et al.
# Submitted via: CDex 1.51
#
DISCID=3408b105
DTITLE=Patrice Rushen - Before The Dawn
DYEAR=1975
DGENRE=Jazz
TTITLE0=Kickin' Back
TTITLE1=What's The Story
TTITLE2=Jubilation
TTITLE3=Before The Dawn
TTITLE4=Razzia
EXTD=YEAR: 1975
EXTT0=
EXTT1=
EXTT2=
EXTT3=
EXTT4=
PLAYORDER=
